<svg id="svg" version="1.1" width="400" height="401.5355086372361" viewBox="0 0 400 401.5355086372361" xmlns="http://www.w3.org/2000/svg" xmlns:xlink="http://www.w3.org/1999/xlink" ><g id="svgg"><path id="path0" d="M0.000 200.600 L 0.000 401.200 200.000 401.200 L 400.000 401.200 400.000 200.600 L 400.000 0.000 200.000 0.000 L 0.000 0.000 0.000 200.600 M234.068 38.628 C 251.081 55.693,283.000 87.647,305.000 109.637 C 327.000 131.627,355.664 160.279,368.699 173.309 L 392.398 197.000 392.399 199.343 L 392.400 201.685 388.100 206.083 C 380.630 213.722,352.634 241.646,315.260 278.736 C 295.383 298.461,278.013 315.765,276.660 317.188 C 259.874 334.850,203.262 391.123,202.002 391.400 C 199.905 391.860,199.181 391.270,187.335 379.444 C 180.919 373.040,174.619 366.789,173.335 365.554 C 172.051 364.319,168.541 360.809,165.535 357.754 C 158.642 350.748,158.179 350.285,156.034 348.264 C 155.062 347.349,153.802 346.080,153.234 345.444 C 152.665 344.809,147.430 339.475,141.600 333.593 C 135.770 327.710,130.714 322.560,130.364 322.149 C 130.014 321.737,127.674 319.375,125.164 316.901 C 122.654 314.426,120.317 312.099,119.971 311.729 C 118.733 310.406,113.753 305.390,111.200 302.897 C 109.267 301.009,92.707 284.515,89.400 281.184 C 89.180 280.962,84.860 276.650,79.800 271.601 C 74.740 266.552,70.420 262.242,70.200 262.022 C 68.461 260.287,17.733 209.905,17.503 209.685 C 11.987 204.403,9.200 200.922,9.200 199.315 L 9.200 197.618 44.982 161.909 C 64.662 142.269,90.537 116.450,102.482 104.532 C 114.427 92.615,135.630 71.320,149.600 57.210 C 163.570 43.100,175.239 31.341,175.531 31.078 C 178.250 28.632,197.939 8.736,198.128 8.244 C 198.317 7.752,198.936 7.600,200.755 7.600 L 203.136 7.600 234.068 38.628 M191.600 94.887 C 188.630 95.046,185.390 95.316,184.400 95.487 L 182.600 95.800 182.400 116.667 C 182.290 128.144,182.088 137.646,181.950 137.783 C 181.813 137.921,166.147 138.022,147.138 138.009 C 110.131 137.983,110.000 137.988,110.000 139.426 C 110.000 139.936,109.820 140.464,109.600 140.600 C 109.380 140.736,109.200 141.287,109.200 141.824 C 109.200 142.361,109.020 142.800,108.800 142.800 C 108.580 142.800,108.400 143.162,108.400 143.605 C 108.400 144.048,108.225 144.723,108.010 145.105 C 107.796 145.487,107.158 146.970,106.592 148.400 C 105.160 152.023,105.022 152.345,103.951 154.600 C 103.428 155.700,102.865 156.660,102.700 156.733 C 102.535 156.807,102.400 157.116,102.400 157.421 C 102.400 157.726,102.044 158.610,101.608 159.386 L 100.816 160.796 141.308 160.898 L 181.800 161.000 182.046 210.400 C 182.284 258.258,182.363 261.278,183.536 267.200 C 184.071 269.899,186.180 274.782,187.587 276.576 C 189.721 279.297,195.976 284.400,197.178 284.400 C 197.410 284.400,197.600 284.580,197.600 284.800 C 197.600 285.020,197.872 285.200,198.205 285.200 C 198.538 285.200,199.123 285.359,199.505 285.553 C 202.039 286.842,204.546 287.470,209.400 288.033 C 216.731 288.882,241.189 287.737,244.200 286.404 C 244.640 286.209,245.630 285.961,246.400 285.853 C 249.237 285.456,250.264 285.034,253.200 283.063 C 258.689 279.378,262.120 276.688,265.742 273.227 C 272.487 266.785,273.647 265.524,277.102 260.883 C 278.363 259.187,279.503 257.710,279.634 257.600 C 280.242 257.090,284.400 250.549,284.400 250.104 C 284.400 249.553,283.748 249.410,283.533 249.913 C 283.175 250.756,274.903 256.400,274.027 256.400 C 273.829 256.400,273.607 256.550,273.533 256.733 C 273.460 256.916,272.320 257.664,271.000 258.394 C 267.541 260.309,266.677 260.724,261.400 263.003 C 258.681 264.177,255.163 265.204,249.600 266.446 C 244.754 267.528,242.203 267.713,232.000 267.721 C 211.666 267.738,206.647 266.186,201.958 258.432 C 199.020 253.572,199.185 256.809,199.298 206.333 L 199.400 161.000 245.707 160.898 L 292.014 160.797 291.745 159.698 C 291.597 159.094,291.324 158.540,291.138 158.467 C 290.952 158.393,290.800 158.114,290.800 157.846 C 290.800 157.137,289.851 155.207,289.500 155.203 C 289.335 155.201,289.200 154.965,289.200 154.679 C 289.200 154.392,288.760 153.267,288.222 152.179 C 286.797 149.297,283.200 139.984,283.200 139.176 C 283.200 138.005,283.034 138.000,240.810 138.000 C 203.679 138.000,199.662 137.939,199.443 137.367 C 199.309 137.019,199.200 127.320,199.200 115.813 L 199.200 94.891 198.100 94.745 C 197.495 94.665,194.570 94.729,191.600 94.887 " stroke="none" fill="#ffffff" fill-rule="evenodd"></path><path id="path1" d="M196.314 14.033 C 194.051 16.251,191.030 19.184,189.600 20.552 C 188.170 21.920,186.730 23.459,186.400 23.973 C 186.070 24.487,185.552 25.108,185.248 25.354 C 184.944 25.599,183.030 27.420,180.994 29.400 C 178.957 31.380,176.956 33.290,176.546 33.644 C 176.135 33.998,174.326 35.798,172.524 37.644 C 170.722 39.490,169.012 41.223,168.724 41.495 C 167.345 42.798,161.327 48.770,160.045 50.108 C 156.754 53.543,146.490 63.847,145.773 64.436 C 145.348 64.786,143.110 67.096,140.800 69.570 C 138.490 72.044,135.348 75.268,133.818 76.734 C 132.288 78.200,129.678 80.828,128.018 82.573 C 124.548 86.220,101.000 109.781,98.362 112.245 C 97.393 113.150,94.427 116.120,91.771 118.845 C 89.115 121.570,85.695 124.995,84.171 126.455 C 82.647 127.915,79.746 130.795,77.724 132.855 C 75.703 134.915,68.953 141.613,62.724 147.740 C 56.496 153.867,51.220 159.067,51.000 159.295 C 50.613 159.696,34.482 175.788,33.923 176.331 C 30.995 179.174,11.765 198.924,11.678 199.177 C 11.510 199.667,12.839 201.090,23.800 212.149 C 29.080 217.477,34.041 222.548,34.824 223.418 C 35.607 224.288,38.577 227.256,41.424 230.013 C 44.271 232.770,47.680 236.136,49.000 237.493 C 50.320 238.851,53.740 242.296,56.600 245.151 C 59.460 248.005,62.120 250.669,62.511 251.070 C 62.902 251.472,66.359 254.950,70.192 258.800 C 74.025 262.650,77.485 266.132,77.880 266.539 C 78.276 266.945,80.134 268.745,82.008 270.539 C 83.882 272.332,86.456 274.880,87.727 276.200 C 88.997 277.520,90.344 278.885,90.719 279.233 C 91.093 279.581,91.947 280.481,92.616 281.233 C 94.033 282.826,98.065 286.400,98.444 286.400 C 98.587 286.400,99.419 287.345,100.293 288.500 C 102.024 290.789,109.089 298.000,109.599 298.000 C 109.973 298.000,112.963 300.993,119.000 307.411 C 121.420 309.984,124.106 312.744,124.969 313.545 C 125.832 314.345,127.602 316.080,128.903 317.400 C 130.205 318.720,143.044 331.639,157.435 346.109 C 171.826 360.579,183.600 372.594,183.600 372.809 C 183.600 373.024,183.869 373.200,184.197 373.200 C 184.525 373.200,185.290 373.771,185.897 374.470 C 187.258 376.036,199.559 388.400,200.481 389.128 C 201.074 389.597,204.682 386.114,232.384 358.328 C 286.602 303.947,310.963 279.576,340.600 250.069 C 373.096 217.716,390.800 199.811,390.800 199.301 C 390.800 199.111,389.900 198.093,388.800 197.039 C 387.700 195.985,386.800 194.960,386.800 194.761 C 386.800 194.563,386.530 194.400,386.200 194.400 C 385.870 194.400,385.600 194.247,385.600 194.061 C 385.600 193.753,373.167 181.282,309.072 117.300 C 297.557 105.805,287.925 96.400,287.668 96.400 C 287.410 96.400,287.200 96.225,287.200 96.012 C 287.200 94.967,202.207 10.000,201.162 10.000 C 200.758 10.000,198.577 11.815,196.314 14.033 M199.820 93.970 C 200.029 94.174,202.090 94.539,204.400 94.781 C 209.181 95.282,217.233 96.614,220.200 97.393 C 227.251 99.246,229.490 99.922,233.600 101.436 C 240.731 104.064,248.391 107.627,251.262 109.651 C 251.846 110.063,252.420 110.400,252.539 110.400 C 252.853 110.400,258.024 113.624,259.244 114.581 C 259.819 115.031,260.705 115.670,261.213 116.000 C 265.991 119.103,276.741 129.313,280.381 134.206 C 281.360 135.523,282.456 136.870,282.817 137.200 C 283.177 137.530,283.699 138.430,283.977 139.200 C 284.254 139.970,284.622 140.960,284.796 141.400 C 284.969 141.840,285.774 143.910,286.585 146.000 C 287.397 148.090,288.407 150.492,288.830 151.338 C 289.254 152.184,289.600 153.129,289.600 153.438 C 289.600 153.747,289.780 154.000,290.000 154.000 C 290.220 154.000,290.400 154.360,290.400 154.800 C 290.400 155.240,290.580 155.600,290.800 155.600 C 291.020 155.600,291.200 155.865,291.200 156.188 C 291.200 156.511,291.560 157.417,292.000 158.200 C 292.440 158.983,292.800 160.097,292.800 160.674 C 292.800 161.252,293.216 162.281,293.725 162.962 C 294.732 164.308,296.400 168.915,296.400 170.348 C 296.400 170.838,296.656 171.736,296.970 172.342 C 297.283 172.948,297.725 175.424,297.951 177.845 C 298.177 180.266,298.565 182.776,298.813 183.423 C 299.845 186.115,299.586 207.966,298.464 212.800 C 298.234 213.790,297.859 215.680,297.631 217.000 C 296.653 222.650,294.419 230.116,292.351 234.644 C 291.938 235.548,291.600 236.561,291.600 236.895 C 291.600 237.229,291.330 237.726,291.000 238.000 C 290.670 238.274,290.400 238.681,290.400 238.904 C 290.400 239.127,289.641 240.860,288.713 242.755 C 287.785 244.650,287.073 246.425,287.130 246.699 C 287.264 247.339,285.741 249.973,282.329 255.000 C 275.898 264.477,273.849 266.869,265.538 274.600 C 260.557 279.233,250.407 286.400,248.826 286.400 C 248.634 286.400,247.425 286.991,246.138 287.714 C 244.852 288.437,242.810 289.450,241.600 289.964 C 240.390 290.478,238.680 291.222,237.800 291.616 C 233.694 293.456,231.998 294.139,229.400 294.994 C 225.427 296.303,221.388 297.420,218.600 297.982 C 217.280 298.247,215.480 298.617,214.600 298.803 C 206.957 300.418,189.243 300.633,181.000 299.211 C 179.680 298.983,177.700 298.642,176.600 298.452 C 171.015 297.489,159.959 293.936,154.400 291.318 C 146.069 287.393,144.837 286.716,139.400 283.078 C 135.817 280.680,129.868 276.056,127.200 273.594 C 120.909 267.789,118.337 264.989,114.349 259.600 C 110.108 253.869,106.659 248.381,104.675 244.208 C 103.836 242.444,102.724 240.100,102.204 239.000 C 99.410 233.085,95.713 220.685,94.810 214.200 C 94.535 212.220,94.151 209.970,93.957 209.200 C 92.975 205.298,93.690 186.785,95.178 177.600 C 96.413 169.978,97.054 167.692,99.349 162.725 C 99.927 161.474,100.400 160.294,100.400 160.104 C 100.400 159.913,101.184 158.147,102.142 156.179 C 103.100 154.210,104.477 151.160,105.202 149.400 C 105.927 147.640,106.853 145.437,107.260 144.504 C 107.667 143.572,108.000 142.567,108.000 142.271 C 108.000 141.975,108.122 141.611,108.271 141.462 C 108.421 141.313,108.837 140.338,109.196 139.295 C 109.674 137.907,110.083 137.366,110.724 137.272 C 111.206 137.202,111.600 136.993,111.600 136.809 C 111.600 135.673,122.641 124.134,127.319 120.381 C 128.814 119.182,130.704 117.653,131.519 116.984 C 132.333 116.315,133.389 115.505,133.865 115.184 C 134.340 114.863,136.089 113.655,137.751 112.500 C 139.413 111.345,140.937 110.400,141.137 110.400 C 141.338 110.400,141.689 110.174,141.918 109.899 C 142.147 109.623,143.474 108.801,144.867 108.072 C 146.260 107.343,147.670 106.595,148.000 106.409 C 150.175 105.189,155.429 102.958,158.534 101.936 C 160.550 101.272,162.389 100.573,162.620 100.382 C 162.851 100.191,163.841 99.912,164.820 99.762 C 165.799 99.612,167.050 99.265,167.600 98.991 C 168.150 98.718,169.590 98.361,170.800 98.199 C 172.010 98.037,173.630 97.660,174.400 97.362 C 175.170 97.063,176.952 96.755,178.361 96.678 C 180.328 96.570,181.071 96.352,181.569 95.737 C 182.744 94.286,198.572 92.754,199.820 93.970 " stroke="none" fill="#0055fe" fill-rule="evenodd"></path><path id="path2" d="M176.800 96.833 C 175.810 96.966,174.550 97.261,174.000 97.488 C 173.450 97.715,172.010 98.034,170.800 98.197 C 169.590 98.360,168.150 98.718,167.600 98.991 C 167.050 99.265,165.799 99.612,164.820 99.762 C 163.841 99.912,162.851 100.191,162.620 100.382 C 162.389 100.573,160.550 101.272,158.534 101.936 C 155.429 102.958,150.175 105.189,148.000 106.409 C 147.670 106.595,146.260 107.343,144.867 108.072 C 143.474 108.801,142.147 109.623,141.918 109.899 C 141.689 110.174,141.338 110.400,141.137 110.400 C 140.937 110.400,139.413 111.345,137.751 112.500 C 136.089 113.655,134.340 114.863,133.865 115.184 C 133.389 115.505,132.333 116.315,131.519 116.984 C 130.704 117.653,128.814 119.182,127.319 120.381 C 122.572 124.190,111.600 135.676,111.600 136.837 C 111.600 137.052,125.890 137.200,146.604 137.200 L 181.607 137.200 181.504 116.903 L 181.400 96.605 180.000 96.598 C 179.230 96.594,177.790 96.699,176.800 96.833 M199.843 161.833 C 199.709 162.181,199.606 182.116,199.614 206.133 C 199.629 253.432,199.590 252.531,201.823 256.941 C 205.410 264.025,209.768 266.090,223.559 267.240 C 233.347 268.057,243.826 267.269,253.000 265.028 C 256.919 264.070,260.052 262.887,267.400 259.588 C 272.349 257.366,281.118 251.478,285.509 247.429 C 287.029 246.027,290.400 240.151,290.400 238.904 C 290.400 238.681,290.670 238.274,291.000 238.000 C 291.330 237.726,291.600 237.229,291.600 236.895 C 291.600 236.561,291.938 235.548,292.351 234.644 C 294.419 230.116,296.653 222.650,297.631 217.000 C 297.859 215.680,298.234 213.790,298.464 212.800 C 299.586 207.966,299.845 186.115,298.813 183.423 C 298.565 182.776,298.177 180.266,297.951 177.845 C 297.725 175.424,297.283 172.948,296.970 172.342 C 296.656 171.736,296.398 170.826,296.397 170.320 C 296.391 168.932,294.723 164.397,293.596 162.705 L 292.600 161.210 246.343 161.205 C 204.528 161.200,200.062 161.261,199.843 161.833 " stroke="none" fill="#c03b96" fill-rule="evenodd"></path><path id="path3" d="M188.352 20.273 C 181.532 27.053,167.548 41.058,157.276 51.396 C 138.868 69.921,39.402 169.271,34.645 173.883 C 28.880 179.471,11.678 197.109,11.036 198.090 C 9.718 200.101,8.553 198.846,51.326 241.517 C 61.406 251.573,74.546 264.713,80.526 270.718 C 86.507 276.723,92.288 282.483,93.373 283.518 C 94.458 284.553,105.078 295.198,116.973 307.173 C 180.246 370.873,199.998 390.400,201.160 390.400 C 202.126 390.400,207.828 384.821,240.644 351.775 C 261.740 330.531,290.598 301.596,304.774 287.475 C 345.521 246.886,387.208 205.180,389.500 202.710 C 393.143 198.786,397.950 204.301,343.977 150.485 C 317.784 124.368,289.119 95.716,280.277 86.814 C 239.012 45.268,202.515 8.873,201.676 8.432 C 200.799 7.971,200.108 8.585,188.352 20.273 M232.647 40.722 C 269.178 77.216,287.200 95.481,287.200 96.012 C 287.200 96.225,287.410 96.400,287.668 96.400 C 287.925 96.400,297.557 105.805,309.072 117.300 C 373.167 181.282,385.600 193.753,385.600 194.061 C 385.600 194.247,385.870 194.400,386.200 194.400 C 386.530 194.400,386.800 194.563,386.800 194.761 C 386.800 194.960,387.700 195.985,388.800 197.039 C 389.900 198.093,390.800 199.111,390.800 199.301 C 390.800 199.811,373.096 217.716,340.600 250.069 C 310.963 279.576,286.602 303.947,232.384 358.328 C 204.682 386.114,201.074 389.597,200.481 389.128 C 199.559 388.400,187.258 376.036,185.897 374.470 C 185.290 373.771,184.525 373.200,184.197 373.200 C 183.869 373.200,183.600 373.024,183.600 372.809 C 183.600 372.594,171.826 360.579,157.435 346.109 C 143.044 331.639,130.205 318.720,128.903 317.400 C 127.602 316.080,125.832 314.345,124.969 313.545 C 124.106 312.744,121.420 309.984,119.000 307.411 C 112.963 300.993,109.973 298.000,109.599 298.000 C 109.089 298.000,102.024 290.789,100.293 288.500 C 99.419 287.345,98.587 286.400,98.444 286.400 C 98.065 286.400,94.033 282.826,92.616 281.233 C 91.947 280.481,91.093 279.581,90.719 279.233 C 90.344 278.885,88.997 277.520,87.727 276.200 C 86.456 274.880,83.882 272.332,82.008 270.539 C 80.134 268.745,78.276 266.945,77.880 266.539 C 77.485 266.132,74.025 262.650,70.192 258.800 C 66.359 254.950,62.902 251.472,62.511 251.070 C 62.120 250.669,59.460 248.005,56.600 245.151 C 53.740 242.296,50.320 238.851,49.000 237.493 C 47.680 236.136,44.271 232.770,41.424 230.013 C 38.577 227.256,35.607 224.288,34.824 223.418 C 34.041 222.548,29.080 217.477,23.800 212.149 C 12.839 201.090,11.510 199.667,11.678 199.177 C 11.765 198.924,30.995 179.174,33.923 176.331 C 34.482 175.788,50.613 159.696,51.000 159.295 C 51.220 159.067,56.496 153.867,62.724 147.740 C 68.953 141.613,75.703 134.915,77.724 132.855 C 79.746 130.795,82.647 127.915,84.171 126.455 C 85.695 124.995,89.115 121.570,91.771 118.845 C 94.427 116.120,97.393 113.150,98.362 112.245 C 101.000 109.781,124.548 86.220,128.018 82.573 C 129.678 80.828,132.288 78.200,133.818 76.734 C 135.348 75.268,138.490 72.044,140.800 69.570 C 143.110 67.096,145.348 64.786,145.773 64.436 C 146.490 63.847,156.754 53.543,160.045 50.108 C 161.327 48.770,167.345 42.798,168.724 41.495 C 169.012 41.223,170.722 39.490,172.524 37.644 C 174.326 35.798,176.135 33.998,176.546 33.644 C 176.956 33.290,178.957 31.380,180.994 29.400 C 183.030 27.420,184.944 25.599,185.248 25.354 C 185.552 25.108,186.070 24.487,186.400 23.973 C 186.730 23.459,188.170 21.920,189.600 20.552 C 191.030 19.184,194.051 16.251,196.314 14.033 C 198.577 11.815,200.758 10.000,201.162 10.000 C 201.599 10.000,214.292 22.384,232.647 40.722 M189.400 94.007 C 183.137 94.390,181.267 94.977,181.213 96.576 C 181.206 96.784,181.449 96.613,181.752 96.198 C 182.608 95.028,186.347 94.454,193.300 94.426 L 199.600 94.400 199.600 115.800 L 199.600 137.200 240.724 137.200 C 273.010 137.200,281.986 137.307,282.495 137.700 C 282.851 137.975,283.711 139.730,284.407 141.600 C 285.103 143.470,285.993 145.720,286.384 146.600 C 286.775 147.480,287.226 148.619,287.384 149.130 C 287.543 149.642,287.767 149.967,287.881 149.852 C 287.995 149.738,287.419 147.969,286.600 145.922 C 284.624 140.984,284.561 140.822,283.977 139.200 C 283.699 138.430,283.177 137.530,282.817 137.200 C 282.456 136.870,281.360 135.523,280.381 134.206 C 276.741 129.313,265.991 119.103,261.213 116.000 C 260.705 115.670,259.819 115.031,259.244 114.581 C 258.024 113.624,252.853 110.400,252.539 110.400 C 252.420 110.400,251.846 110.063,251.262 109.651 C 248.391 107.627,240.731 104.064,233.600 101.436 C 229.490 99.922,227.251 99.246,220.200 97.393 C 217.233 96.614,209.181 95.282,204.400 94.781 C 202.090 94.539,200.029 94.174,199.820 93.970 C 199.410 93.571,196.360 93.582,189.400 94.007 M109.405 138.649 C 109.072 139.446,108.800 140.335,108.800 140.625 C 108.800 140.915,108.620 141.264,108.400 141.400 C 108.180 141.536,108.000 141.909,108.000 142.228 C 108.000 142.547,107.666 143.572,107.257 144.504 C 104.912 149.861,103.572 153.306,103.762 153.495 C 103.881 153.614,104.145 153.281,104.350 152.755 C 108.479 142.167,110.194 138.110,110.716 137.700 C 111.295 137.246,111.291 137.200,110.682 137.200 C 110.289 137.200,109.760 137.800,109.405 138.649 M288.017 150.700 C 288.026 150.865,288.378 151.630,288.800 152.400 C 289.721 154.082,289.865 153.455,288.971 151.661 C 288.367 150.452,287.981 150.063,288.017 150.700 M102.600 155.200 C 102.238 155.901,102.026 156.559,102.129 156.662 C 102.232 156.765,102.606 156.269,102.960 155.560 C 103.314 154.851,103.526 154.193,103.431 154.098 C 103.336 154.003,102.962 154.499,102.600 155.200 M291.217 157.500 C 291.226 157.665,291.578 158.430,292.000 159.200 C 292.921 160.882,293.065 160.255,292.171 158.461 C 291.567 157.252,291.181 156.863,291.217 157.500 M99.201 163.000 C 97.797 166.146,97.675 166.468,96.994 168.800 C 94.333 177.910,92.435 203.156,93.957 209.200 C 94.151 209.970,94.535 212.220,94.810 214.200 C 95.713 220.685,99.410 233.085,102.204 239.000 C 102.724 240.100,103.836 242.444,104.675 244.208 C 106.659 248.381,110.108 253.869,114.349 259.600 C 118.337 264.989,120.909 267.789,127.200 273.594 C 129.868 276.056,135.817 280.680,139.400 283.078 C 144.837 286.716,146.069 287.393,154.400 291.318 C 159.959 293.936,171.015 297.489,176.600 298.452 C 177.700 298.642,179.680 298.983,181.000 299.211 C 189.243 300.633,206.957 300.418,214.600 298.803 C 215.480 298.617,217.280 298.247,218.600 297.982 C 221.388 297.420,225.427 296.303,229.400 294.994 C 231.998 294.139,233.694 293.456,237.800 291.616 C 238.680 291.222,240.390 290.478,241.600 289.964 C 242.810 289.450,244.852 288.437,246.138 287.714 C 247.425 286.991,248.719 286.400,249.015 286.400 C 249.311 286.400,249.683 286.189,249.842 285.932 C 250.039 285.614,249.910 285.549,249.438 285.730 C 248.239 286.190,241.160 287.545,237.200 288.073 C 230.851 288.919,207.671 288.764,204.400 287.853 C 194.277 285.036,187.285 279.242,184.241 271.150 C 181.780 264.606,181.846 266.158,181.701 211.736 C 181.594 171.696,181.467 161.988,181.050 161.641 C 180.690 161.343,168.258 161.179,140.313 161.106 L 100.094 161.000 99.201 163.000 M286.353 246.700 C 286.327 246.865,286.324 247.128,286.348 247.285 C 286.412 247.720,284.167 251.688,282.176 254.658 C 274.277 266.438,263.977 276.635,252.516 284.023 C 251.370 284.761,250.504 285.438,250.592 285.526 C 251.067 286.001,261.410 278.440,265.538 274.600 C 273.849 266.869,275.898 264.477,282.329 255.000 C 285.410 250.461,287.200 247.457,287.200 246.829 C 287.200 246.348,286.427 246.231,286.353 246.700 " stroke="none" fill="#168af7" fill-rule="evenodd"></path><path id="path4" d="M198.128 8.244 C 197.939 8.736,178.250 28.632,175.531 31.078 C 175.239 31.341,163.570 43.100,149.600 57.210 C 135.630 71.320,114.427 92.615,102.482 104.532 C 90.537 116.450,64.662 142.269,44.982 161.909 L 9.200 197.618 9.200 199.315 C 9.200 200.922,11.987 204.403,17.503 209.685 C 17.733 209.905,68.461 260.287,70.200 262.022 C 70.420 262.242,74.740 266.552,79.800 271.601 C 84.860 276.650,89.180 280.962,89.400 281.184 C 92.707 284.515,109.267 301.009,111.200 302.897 C 113.753 305.390,118.733 310.406,119.971 311.729 C 120.317 312.099,122.654 314.426,125.164 316.901 C 127.674 319.375,130.014 321.737,130.364 322.149 C 130.714 322.560,135.770 327.710,141.600 333.593 C 147.430 339.475,152.665 344.809,153.234 345.444 C 153.802 346.080,155.062 347.349,156.034 348.264 C 158.179 350.285,158.642 350.748,165.535 357.754 C 168.541 360.809,172.051 364.319,173.335 365.554 C 174.619 366.789,180.919 373.040,187.335 379.444 C 199.181 391.270,199.905 391.860,202.002 391.400 C 203.262 391.123,259.874 334.850,276.660 317.188 C 278.013 315.765,295.383 298.461,315.260 278.736 C 352.634 241.646,380.630 213.722,388.100 206.083 L 392.400 201.685 392.399 199.343 L 392.398 197.000 368.699 173.309 C 355.664 160.279,327.000 131.627,305.000 109.637 C 283.000 87.647,251.081 55.693,234.068 38.628 L 203.136 7.600 200.755 7.600 C 198.936 7.600,198.317 7.752,198.128 8.244 M233.400 39.773 C 250.340 56.743,271.435 77.911,280.277 86.814 C 289.119 95.716,317.784 124.368,343.977 150.485 C 397.950 204.301,393.143 198.786,389.500 202.710 C 387.208 205.180,345.521 246.886,304.774 287.475 C 290.598 301.596,261.740 330.531,240.644 351.775 C 207.828 384.821,202.126 390.400,201.160 390.400 C 199.998 390.400,180.246 370.873,116.973 307.173 C 105.078 295.198,94.458 284.553,93.373 283.518 C 92.288 282.483,86.507 276.723,80.526 270.718 C 74.546 264.713,61.406 251.573,51.326 241.517 C 8.553 198.846,9.718 200.101,11.036 198.090 C 11.678 197.109,28.880 179.471,34.645 173.883 C 39.402 169.271,138.868 69.921,157.276 51.396 C 197.250 11.167,200.639 7.887,201.676 8.432 C 202.184 8.699,216.460 22.802,233.400 39.773 M184.600 94.955 C 183.500 95.200,182.375 95.546,182.100 95.724 C 181.711 95.976,181.600 100.602,181.600 116.624 L 181.600 137.200 146.476 137.200 C 119.009 137.200,111.204 137.309,110.669 137.700 C 110.120 138.101,117.079 138.181,145.853 138.106 C 165.581 138.054,181.829 137.904,181.961 137.773 C 182.092 137.641,182.290 128.144,182.400 116.667 L 182.600 95.800 184.400 95.487 C 185.390 95.316,188.630 95.030,191.600 94.853 L 197.000 94.532 191.800 94.521 C 188.940 94.515,185.700 94.711,184.600 94.955 M198.100 94.687 L 199.200 94.853 199.206 115.927 C 199.209 127.517,199.354 137.223,199.526 137.494 C 199.772 137.881,208.955 138.012,241.528 138.094 C 274.955 138.179,283.079 138.101,282.531 137.700 C 281.994 137.308,272.991 137.200,240.724 137.200 L 199.600 137.200 199.600 115.800 L 199.600 94.400 198.300 94.460 C 197.090 94.516,197.076 94.531,198.100 94.687 M109.646 139.067 C 109.621 139.324,109.484 139.864,109.341 140.267 C 109.140 140.836,109.194 140.897,109.579 140.542 C 109.852 140.291,109.989 139.751,109.884 139.342 C 109.779 138.934,109.672 138.810,109.646 139.067 M283.215 139.233 C 283.197 139.981,286.813 149.329,288.222 152.179 C 288.760 153.267,289.200 154.392,289.200 154.679 C 289.200 154.965,289.335 155.201,289.500 155.203 C 289.859 155.207,290.800 157.144,290.800 157.880 C 290.800 158.166,290.974 158.400,291.187 158.400 C 291.651 158.400,291.457 157.861,289.675 154.200 C 288.925 152.660,287.957 150.500,287.524 149.400 C 287.092 148.300,286.498 146.860,286.205 146.200 C 285.912 145.540,285.123 143.560,284.451 141.800 C 283.780 140.040,283.224 138.885,283.215 139.233 M108.679 141.757 C 108.515 142.174,108.475 142.609,108.591 142.724 C 108.955 143.089,109.276 142.491,109.124 141.731 C 108.983 141.035,108.962 141.036,108.679 141.757 M106.288 147.859 C 105.252 150.467,103.515 154.392,102.429 156.583 C 101.343 158.773,100.543 160.708,100.651 160.883 C 100.759 161.057,118.815 161.200,140.775 161.200 C 173.770 161.200,180.780 161.294,181.149 161.739 C 181.472 162.128,181.626 175.555,181.701 210.039 L 181.805 257.800 181.802 209.400 L 181.800 161.000 141.308 160.898 L 100.816 160.796 101.608 159.386 C 102.044 158.610,102.400 157.726,102.400 157.421 C 102.400 157.116,102.535 156.807,102.700 156.733 C 102.865 156.660,103.428 155.700,103.951 154.600 C 105.008 152.375,105.128 152.095,106.600 148.400 C 107.170 146.970,107.829 145.413,108.064 144.939 C 108.300 144.466,108.421 143.863,108.333 143.598 C 108.245 143.334,107.325 145.252,106.288 147.859 M291.784 159.698 L 292.014 160.797 245.707 160.898 L 199.400 161.000 199.298 206.333 C 199.185 256.809,199.020 253.572,201.958 258.432 C 206.647 266.186,211.666 267.738,232.000 267.721 C 242.203 267.713,244.754 267.528,249.600 266.446 C 255.163 265.204,258.681 264.177,261.400 263.003 C 266.677 260.724,267.541 260.309,271.000 258.394 C 272.320 257.664,273.460 256.916,273.533 256.733 C 273.607 256.550,273.829 256.400,274.027 256.400 C 274.903 256.400,283.175 250.756,283.533 249.913 C 283.748 249.410,284.400 249.553,284.400 250.104 C 284.400 250.549,280.242 257.090,279.634 257.600 C 279.503 257.710,278.363 259.187,277.102 260.883 C 273.647 265.524,272.487 266.785,265.742 273.227 C 262.120 276.688,258.689 279.378,253.200 283.063 C 250.264 285.034,249.237 285.456,246.400 285.853 C 245.630 285.961,244.640 286.209,244.200 286.404 C 241.189 287.737,216.731 288.882,209.400 288.033 C 204.546 287.470,202.039 286.842,199.505 285.553 C 199.123 285.359,198.538 285.200,198.205 285.200 C 197.872 285.200,197.600 285.020,197.600 284.800 C 197.600 284.580,197.410 284.400,197.178 284.400 C 195.974 284.400,189.688 279.270,187.594 276.579 C 185.287 273.614,182.870 266.482,182.753 262.294 C 182.680 259.676,182.110 257.659,182.049 259.800 C 181.731 270.845,188.386 281.258,198.676 285.819 C 207.606 289.776,232.867 289.943,247.800 286.143 C 257.245 283.740,277.188 264.335,285.180 249.775 C 286.804 246.814,286.704 246.375,284.796 248.100 C 280.829 251.686,271.890 257.569,267.200 259.679 C 266.210 260.125,264.500 260.896,263.400 261.392 C 255.478 264.965,245.994 267.034,235.559 267.464 C 224.540 267.917,213.135 266.530,208.345 264.153 C 204.808 262.398,201.209 257.163,200.151 252.236 C 199.605 249.691,199.310 163.221,199.843 161.833 C 200.062 161.261,204.520 161.200,246.219 161.200 C 271.593 161.200,292.438 161.063,292.541 160.895 C 292.645 160.727,292.465 160.142,292.142 159.595 L 291.554 158.600 291.784 159.698 " stroke="none" fill="#e2bbe1" fill-rule="evenodd"></path></g></svg>